name analog
datacolumns 19
datarows 38
range 0.3785 0.397
endheader
time	ground_force_vx	ground_force_vy	ground_force_vz	ground_force_px	ground_force_py	ground_force_pz	l_ground_force_vx	l_ground_force_vy	l_ground_force_vz	l_ground_force_px	l_ground_force_py	l_ground_force_pz	ground_torque_x	ground_torque_y	ground_torque_z	l_ground_torque_x	l_ground_torque_y	l_ground_torque_z
0.3785	-0.0	-0.0	-0.0	-3.939247131347656	21.10989761352539	-390.1646118164063	2.417026996612549	-18.395898818969727	-371.2138671875	-0.0	-0.0	-0.0	-0.0	-0.0	-0.0	90299.125	-8410.650390625	-8044.7119140625
0.379	-0.0	-0.0	-0.0	-3.985004425048828	21.27358627319336	-393.7071533203125	2.785470962524414	-18.4508113861084	-374.7364501953125	-0.0	-0.0	-0.0	-0.0	-0.0	-0.0	91153.953125	-8922.716796875	-8016.1904296875
0.3795	-0.0	-0.0	-0.0	-3.763705730438232	21.441843032836918	-397.57513427734375	3.4597206115722656	-18.44247436523437	-377.9987182617188	-0.0	-0.0	-0.0	-0.0	-0.0	-0.0	92181.71875	-9405.3671875	-7755.794921875
0.38	-0.0	-0.0	-0.0	-2.989682912826538	22.438915252685547	-402.5290832519531	4.160947799682617	-18.622217178344727	-382.2835388183594	-0.0	-0.0	-0.0	-0.0	-0.0	-0.0	92995.5078125	-9992.1533203125	-7631.0859375
0.3805	-0.0	-0.0	-0.0	-2.393800735473633	22.64762115478516	-407.47705078125	4.967867851257324	-18.987205505371094	-387.432861328125	-0.0	-0.0	-0.0	-0.0	-0.0	-0.0	94615.3984375	-10488.392578125	-7511.29150390625
0.381	-0.0	-0.0	-0.0	-1.8458831310272217	23.26102066040039	-412.1601867675781	5.815717697143555	-19.607397079467773	-393.1950073242188	-0.0	-0.0	-0.0	-0.0	-0.0	-0.0	96367.7734375	-11061.0205078125	-7343.80126953125
0.3815	-0.0	-0.0	-0.0	-1.2489471435546875	23.564599990844727	-419.5100708007813	6.598735332489014	-20.066017150878903	-399.9129943847656	-0.0	-0.0	-0.0	-0.0	-0.0	-0.0	97763.828125	-11680.3427734375	-7256.6787109375
0.382	-0.0	-0.0	-0.0	0.6596989631652832	24.48513412475586	-426.406982421875	7.637629508972168	-20.973670959472656	-406.5222778320313	-0.0	-0.0	-0.0	-0.0	-0.0	-0.0	99820.828125	-12402.201171875	-7092.19921875
0.3825	-0.0	-0.0	-0.0	2.0792112350463867	25.179338455200195	-434.3491516113281	8.62350845336914	-21.684328079223636	-413.1532897949219	-0.0	-0.0	-0.0	-0.0	-0.0	-0.0	101408.828125	-12973.2353515625	-6875.22705078125
0.383	-0.0	-0.0	-0.0	4.599194049835205	26.074281692504883	-443.22943115234375	9.714415550231934	-21.705150604248047	-420.9407043457031	-0.0	-0.0	-0.0	-0.0	-0.0	-0.0	103299.3359375	-13535.45703125	-6591.20947265625
0.3835	-0.0	-0.0	-0.0	6.276906967163086	27.4694881439209	-454.0620422363281	11.17755889892578	-22.821453094482425	-428.8262939453125	-0.0	-0.0	-0.0	-0.0	-0.0	-0.0	105479.5390625	-14200.5732421875	-6392.97509765625
0.384	-0.0	-0.0	-0.0	9.11580753326416	28.57608795166016	-465.943359375	12.374664306640623	-23.25207901000977	-436.9137878417969	-0.0	-0.0	-0.0	-0.0	-0.0	-0.0	107459.9375	-14998.228515625	-6319.7548828125
0.3845	-0.0	-0.0	-0.0	11.955961227416992	29.974872589111328	-476.5164184570313	13.769187927246094	-23.679615020751957	-445.068359375	-0.0	-0.0	-0.0	-0.0	-0.0	-0.0	109446.0546875	-15680.7216796875	-6076.8173828125
0.385	-0.0	-0.0	-0.0	14.611553192138672	30.999080657958984	-484.8105163574219	15.374855995178224	-24.134580612182617	-453.84954833984375	-0.0	-0.0	-0.0	-0.0	-0.0	-0.0	111711.921875	-16693.337890625	-5771.81689453125
0.3855	-0.0	-0.0	-0.0	16.84320831298828	32.4259033203125	-494.6711120605469	17.36977195739746	-24.60681915283203	-463.0480346679688	-0.0	-0.0	-0.0	-0.0	-0.0	-0.0	113906.078125	-17141.3203125	-5470.01220703125
0.386	-0.0	-0.0	-0.0	18.78400611877441	33.429283142089844	-501.6603393554688	19.264015197753903	-25.238618850708008	-470.4309997558594	-0.0	-0.0	-0.0	-0.0	-0.0	-0.0	115623.1640625	-17971.9140625	-5123.1455078125
0.3865	-0.0	-0.0	-0.0	20.75983428955078	34.36051177978516	-510.9462890625	20.864879608154297	-25.551589965820312	-478.234375	-0.0	-0.0	-0.0	-0.0	-0.0	-0.0	117289.5859375	-18381.19140625	-4746.68505859375
0.387	-0.0	-0.0	-0.0	22.44064712524414	35.31822204589844	-518.910400390625	22.30636215209961	-26.288917541503903	-484.0988464355469	-0.0	-0.0	-0.0	-0.0	-0.0	-0.0	119018.046875	-18791.57421875	-4473.03466796875
0.3875	-0.0	-0.0	-0.0	25.35402107238769	36.41877365112305	-524.5426635742188	23.54387855529785	-27.185306549072266	-489.6503601074219	-0.0	-0.0	-0.0	-0.0	-0.0	-0.0	120774.7265625	-19120.251953125	-4113.4931640625
0.388	-0.0	-0.0	-0.0	27.71755027770996	37.33224105834961	-532.2593383789062	26.31102752685547	-27.498863220214844	-495.96923828125	-0.0	-0.0	-0.0	-0.0	-0.0	-0.0	122054.0	-19730.38671875	-3657.6005859375
0.3885	-0.0	-0.0	-0.0	30.16156005859375	38.60176849365234	-540.01025390625	28.92713928222656	-27.520755767822266	-502.531982421875	-0.0	-0.0	-0.0	-0.0	-0.0	-0.0	123640.6328125	-20052.220703125	-2935.318115234375
0.389	-0.0	-0.0	-0.0	32.887229919433594	40.16584396362305	-547.76513671875	31.092113494873047	-28.045551300048828	-507.9429321289063	-0.0	-0.0	-0.0	-0.0	-0.0	-0.0	124660.34375	-20242.80078125	-2364.118408203125
0.3895	-0.0	-0.0	-0.0	35.59283447265625	41.05195617675781	-557.2464599609375	32.46814727783203	-28.38714027404785	-510.7379150390625	-0.0	-0.0	-0.0	-0.0	-0.0	-0.0	125543.8515625	-20251.259765625	-1941.945556640625
0.39	-0.0	-0.0	-0.0	38.30652618408203	42.70218276977539	-564.9263305664062	33.585182189941406	-29.09335327148437	-515.6614990234375	-0.0	-0.0	-0.0	-0.0	-0.0	-0.0	126503.140625	-20114.62890625	-1651.9779052734375
0.3905	-0.0	-0.0	-0.0	40.67913818359375	43.94950866699219	-572.5701293945312	34.657737731933594	-29.27766227722168	-519.4661254882812	-0.0	-0.0	-0.0	-0.0	-0.0	-0.0	127183.8828125	-19789.365234375	-1406.9976806640625
0.391	-0.0	-0.0	-0.0	42.55598831176758	45.78471374511719	-577.9849853515625	35.63960647583008	-29.03856468200684	-522.854736328125	-0.0	-0.0	-0.0	-0.0	-0.0	-0.0	128135.8984375	-19479.130859375	-1228.2900390625
0.3915	-0.0	-0.0	-0.0	44.49547958374024	47.20255279541016	-582.8917846679688	36.35060501098633	-29.07600975036621	-526.0277709960938	-0.0	-0.0	-0.0	-0.0	-0.0	-0.0	128655.2265625	-19262.052734375	-1126.2216796875
0.392	-0.0	-0.0	-0.0	46.67681503295898	48.84865951538086	-587.9693603515625	37.482696533203125	-29.685199737548828	-527.5377807617188	-0.0	-0.0	-0.0	-0.0	-0.0	-0.0	128868.640625	-18342.720703125	-809.9363403320312
0.3925	-0.0	-0.0	-0.0	47.40764617919922	50.45570373535156	-592.3863525390625	38.17929458618164	-30.56849670410156	-530.40380859375	-0.0	-0.0	-0.0	-0.0	-0.0	-0.0	128815.9375	-16971.17578125	-517.1292724609375
0.393	-0.0	-0.0	-0.0	46.8794174194336	52.22579193115234	-594.1459350585938	39.07539367675781	-32.428977966308594	-533.4673461914062	-0.0	-0.0	-0.0	-0.0	-0.0	-0.0	128787.0234375	-15552.5908203125	-110.17408752441406
0.3935	-0.0	-0.0	-0.0	45.73138427734375	54.36954498291016	-592.369873046875	39.61298370361328	-34.6405143737793	-534.9730224609375	-0.0	-0.0	-0.0	-0.0	-0.0	-0.0	128773.8515625	-14102.5068359375	303.6468505859375
0.394	-0.0	-0.0	-0.0	43.68903732299805	55.7380485534668	-596.362548828125	39.45612335205078	-36.73983001708984	-536.4048461914062	-0.0	-0.0	-0.0	-0.0	-0.0	-0.0	128558.0625	-12228.7724609375	409.3370361328125
0.3945	-0.0	-0.0	-0.0	41.47772216796875	56.93568420410156	-597.013916015625	39.01408386230469	-38.8266830444336	-537.7861328125	-0.0	-0.0	-0.0	-0.0	-0.0	-0.0	128220.7890625	-10384.431640625	415.99267578125
0.395	-0.0	-0.0	-0.0	39.28192138671875	58.33019256591797	-598.5145263671875	38.71868896484375	-40.93466567993164	-539.3480224609375	-0.0	-0.0	-0.0	-0.0	-0.0	-0.0	128150.9609375	-8555.0537109375	525.7387084960938
0.3955	-0.0	-0.0	-0.0	36.70302200317383	59.62824249267578	-598.6400146484375	38.906620025634766	-43.25899887084961	-540.1566162109375	-0.0	-0.0	-0.0	-0.0	-0.0	-0.0	127524.375	-6333.1845703125	947.1640625
0.396	-0.0	-0.0	-0.0	33.36855697631836	60.73535919189453	-597.1770629882812	38.25444412231445	-46.08137512207031	-540.9868774414062	-0.0	-0.0	-0.0	-0.0	-0.0	-0.0	127002.59375	-4194.6123046875	1063.1591796875
0.3965	-0.0	-0.0	-0.0	30.65594482421875	62.49134063720703	-594.8402709960938	37.11217498779297	-48.97440719604492	-541.5972900390625	-0.0	-0.0	-0.0	-0.0	-0.0	-0.0	126368.3125	-1838.43603515625	1022.5320434570312
0.397	-0.0	-0.0	-0.0	27.05246353149414	63.341400146484375	-594.3798217773438	34.8149299621582	-51.98201370239258	-541.3282470703125	-0.0	-0.0	-0.0	-0.0	-0.0	-0.0	125892.46875	538.265625	758.5088500976562
